# xmcd
#
# Track frame offsets: 
#        150
#        16765
#        30205
#        43130
#        56367
#        66087
#        80575
#        92527
#        106695
#        115247
#        126445
#        137117
#
# Disc length: 2033 seconds
#
# Revision: 0
# Processed by: cddbd v1.5.2PL0 Copyright (c) Steve Scherf et al.
# Submitted via: ExactAudioCopy v0.99pb5
#
DISCID=9207ef0c
DTITLE=Leo Dan - El Idolo
DYEAR=1994
DGENRE=Latin
TTITLE0=Que hermosa noche
TTITLE1=Quiero enamorarme de tii
TTITLE2=Una calle nos separa
TTITLE3=Como te extrano mi amor
TTITLE4=Te pido que me guies
TTITLE5=Mary es mi amor
TTITLE6=Fanny
TTITLE7=Te he prometido
TTITLE8=Celia
TTITLE9=Solo una vez
TTITLE10=Libre, solterito y sin nadie
TTITLE11=Yo se que no es feliz
EXTD=
EXTT0=
EXTT1=
EXTT2=
EXTT3=
EXTT4=
EXTT5=
EXTT6=
EXTT7=
EXTT8=
EXTT9=
EXTT10=
EXTT11=
PLAYORDER=
